<svg width="15" height="16" viewBox="0 0 15 16" fill="none" xmlns="http://www.w3.org/2000/svg">
<g clip-path="url(#clip0_2393_2550)">
<path d="M7.20521 15.5218C6.98536 15.4546 6.85227 15.2939 6.73132 15.109C6.09933 14.1424 5.32213 13.2939 4.54676 12.4439C3.91992 11.7568 3.29529 11.0671 2.75963 10.3046C2.14492 9.42884 1.70191 8.4792 1.54014 7.41376C1.40007 6.49023 1.47323 5.58031 1.75448 4.68987C2.10999 3.56413 2.75374 2.62626 3.66073 1.87443C4.52323 1.15935 5.5144 0.715234 6.62838 0.560822C8.15632 0.349057 9.57727 0.654205 10.8545 1.51597C12.1707 2.40384 13.0232 3.63178 13.3762 5.18472C13.6501 6.38987 13.5537 7.57259 13.1015 8.72553C12.7104 9.72332 12.0923 10.5774 11.3964 11.3777C10.7159 12.1608 10.0071 12.92 9.33389 13.709C8.95374 14.1546 8.61404 14.6355 8.26882 15.1097C8.1394 15.2877 8.01293 15.4542 7.79345 15.5211C7.59749 15.5219 7.40154 15.5218 7.20521 15.5218ZM7.49419 14.1402C7.69897 13.8715 7.87544 13.6127 8.07948 13.3777C8.86294 12.4766 9.65963 11.5869 10.4431 10.6862C11.0548 9.98325 11.6203 9.24722 11.9769 8.37442C12.4269 7.27222 12.4791 6.14943 12.1115 5.02001C11.728 3.84281 10.9879 2.93729 9.9133 2.31707C8.84713 1.702 7.6997 1.52332 6.49786 1.77626C5.27874 2.03288 4.29198 2.67443 3.56808 3.68729C2.69271 4.91193 2.44639 6.26817 2.80632 7.72773C3.00963 8.5531 3.4247 9.27957 3.95044 9.93803C4.38977 10.488 4.85301 11.02 5.32249 11.545C6.06919 12.3799 6.83463 13.1991 7.49419 14.1402Z" fill="#303030" fill-opacity="0.52"/>
<path d="M7.53351 2.8418C9.28131 2.87195 10.7534 4.08408 11.1023 5.78812C11.2229 6.37746 11.1971 6.96496 11.0265 7.54364C10.9328 7.86165 10.6269 8.0418 10.3199 7.96569C10.0092 7.88886 9.8269 7.59695 9.88535 7.2679C9.91697 7.09033 9.96072 6.91386 9.97984 6.73481C10.0931 5.67599 9.49307 4.6668 8.49234 4.22121C7.53756 3.79621 6.36807 4.04033 5.66587 4.82305C5.02543 5.53702 4.83057 6.37011 5.128 7.27746C5.42874 8.19511 6.08572 8.75393 7.03499 8.95944C7.4269 9.04437 7.8133 8.99364 8.19969 8.91055C8.5405 8.83739 8.83646 9.0179 8.9133 9.33261C8.99271 9.65687 8.81035 9.95283 8.47138 10.0492C6.68646 10.5576 4.71844 9.56275 4.07101 7.82562C3.37506 5.95724 4.22175 3.94584 6.04638 3.1418C6.51881 2.93371 7.01771 2.84143 7.53351 2.8418Z" fill="#303030" fill-opacity="0.52"/>
</g>
<defs>
<clipPath id="clip0_2393_2550">
<rect width="15" height="15" fill="white" transform="translate(0 0.5)"/>
</clipPath>
</defs>
</svg>
