<svg width="15" height="16" viewBox="0 0 15 16" fill="none" xmlns="http://www.w3.org/2000/svg">
<path d="M14.5453 6.26278C14.5453 7.06241 14.5453 7.86205 14.5453 8.66168C14.5376 8.67785 14.5254 8.69293 14.5232 8.70984C14.4673 9.09624 14.2927 9.42087 14.0276 9.70359C13.9839 9.75028 13.9552 9.83006 13.9541 9.89477C13.9468 10.3404 13.9567 10.7863 13.9445 11.2319C13.9365 11.5194 13.6971 11.7352 13.4122 11.7426C13.1379 11.7495 12.8934 11.5451 12.8618 11.2657C12.8449 11.1157 12.8519 10.9631 12.8508 10.8117C12.8493 10.6297 12.8504 10.4481 12.8504 10.2602C11.9328 10.2848 11.2695 9.91241 10.8846 9.08116C10.3232 9.3319 9.76881 9.32785 9.21991 9.07969C8.86881 9.83705 8.28719 10.251 7.46624 10.2525C6.64712 10.254 6.0633 9.84219 5.7144 9.10396C4.90374 9.32639 4.73462 9.32455 4.07874 9.08668C3.52102 10.0006 3.33388 10.1168 2.16477 10.2705C2.16477 11.3091 2.16477 12.3484 2.16477 13.3995C2.23425 13.3995 2.29307 13.3995 2.3519 13.3995C6.18131 13.3995 10.0111 13.3995 13.8405 13.3995C13.9001 13.3995 13.96 13.3977 14.0192 13.4029C14.3162 13.4275 14.5453 13.7154 14.5045 14.0109C14.4611 14.3253 14.2317 14.5021 13.8651 14.5021C9.62286 14.5025 5.38058 14.5025 1.1383 14.5014C1.06991 14.5014 1.00043 14.4973 0.933517 14.4841C0.67359 14.4326 0.489031 14.204 0.491604 13.9437C0.494178 13.6826 0.683149 13.4562 0.939766 13.4058C0.974325 13.3992 1.00888 13.3929 1.04638 13.3859C1.04896 13.3554 1.05263 13.333 1.05263 13.3106C1.053 12.1617 1.0541 11.0128 1.04969 9.86425C1.04932 9.80947 1.01182 9.74366 0.971751 9.70212C0.628737 9.3433 0.454105 8.91903 0.455576 8.42124C0.457414 7.80102 0.455576 7.18043 0.455944 6.56021C0.457047 5.54771 1.07837 4.7341 2.05263 4.47859C2.1383 4.45616 2.16183 4.42455 2.16035 4.34109C2.15631 4.04697 2.15558 3.75285 2.16035 3.45874C2.16844 2.95837 2.46771 2.51572 2.93646 2.34293C3.08241 2.28925 3.1269 2.22602 3.12285 2.07271C3.1144 1.7433 3.35263 1.50249 3.66182 1.49955C3.96697 1.49624 4.20557 1.73778 4.21807 2.06425C4.22102 2.13631 4.21844 2.20874 4.21844 2.27491C4.87359 2.49366 5.17506 2.91388 5.17616 3.59035C5.17653 3.82013 5.1758 4.04991 5.17653 4.27969C5.17653 4.32307 5.18241 4.36682 5.18535 4.40947C5.45925 4.40947 5.71844 4.40947 5.9894 4.40947C5.9894 4.10359 5.98903 3.80579 5.9894 3.50837C5.98977 3.25396 6.05447 3.01793 6.19565 2.80543C6.3758 2.53374 6.62947 2.36425 6.9508 2.27712C6.9508 2.19146 6.94749 2.1091 6.95153 2.02749C6.9655 1.73374 7.20999 1.49991 7.50043 1.49991C7.7916 1.49991 8.03499 1.73263 8.04933 2.02749C8.05337 2.10947 8.05006 2.19146 8.05006 2.27454C8.09013 2.28815 8.11954 2.29807 8.14932 2.30837C8.67028 2.48521 9.00153 2.93374 9.01035 3.48116C9.01477 3.74771 9.01146 4.01425 9.01146 4.2808C9.01146 4.32455 9.01146 4.36793 9.01146 4.40947C9.29271 4.40947 9.55227 4.40947 9.82432 4.40947C9.82432 4.3466 9.82396 4.29256 9.82432 4.23815C9.82653 3.95322 9.81183 3.66719 9.83536 3.3841C9.87874 2.86278 10.1659 2.51352 10.6475 2.32124C10.689 2.30469 10.7317 2.29146 10.7839 2.27308C10.7839 2.18741 10.778 2.10469 10.785 2.02307C10.8093 1.73484 11.0166 1.52602 11.2975 1.50138C11.5445 1.47969 11.7916 1.64881 11.8585 1.89697C11.8809 1.97932 11.8828 2.06977 11.8802 2.15616C11.8773 2.24146 11.899 2.28337 11.9876 2.31315C12.5207 2.49293 12.8365 2.93631 12.8412 3.50065C12.8438 3.77638 12.846 4.05212 12.8394 4.32785C12.8372 4.42418 12.8662 4.4569 12.9611 4.483C13.7453 4.69918 14.2508 5.20322 14.478 5.98594C14.5052 6.07638 14.5232 6.17013 14.5453 6.26278ZM1.55594 7.46278C1.55594 7.77969 1.55484 8.09697 1.55631 8.41388C1.55778 8.83925 1.87763 9.15212 2.31183 9.1558C2.74565 9.15947 3.07212 8.85065 3.0791 8.42675C3.08241 8.21535 3.07763 8.00396 3.08057 7.79256C3.08462 7.47638 3.27028 7.2466 3.55116 7.20432C3.83168 7.16241 4.06183 7.33374 4.1758 7.62896C4.228 7.76388 4.31587 7.90396 4.42653 7.99403C4.82984 8.32308 5.4155 8.16535 5.63094 7.68521C5.75484 7.40947 5.9905 7.27565 6.25631 7.3308C6.53131 7.38778 6.69933 7.60616 6.70116 7.91094C6.70227 8.09477 6.69896 8.27859 6.70227 8.46241C6.70925 8.84109 7.0291 9.14182 7.43572 9.15506C7.84602 9.16866 8.19381 8.87933 8.22028 8.50175C8.23536 8.28631 8.24675 8.07087 8.26477 7.8558C8.28903 7.56425 8.46219 7.37087 8.73388 7.32491C8.98388 7.28263 9.2155 7.42234 9.33241 7.68631C9.47359 8.00469 9.75484 8.18043 10.096 8.16352C10.4328 8.14697 10.6916 7.94146 10.8012 7.60432C10.8916 7.32565 11.1401 7.16315 11.4122 7.20469C11.6861 7.2466 11.8758 7.47271 11.8787 7.76609C11.8809 7.99109 11.8765 8.21646 11.8802 8.44146C11.8868 8.85469 12.2203 9.15653 12.6644 9.1558C13.1081 9.15506 13.4409 8.85175 13.4431 8.43668C13.4468 7.79808 13.4479 7.15947 13.4442 6.52087C13.4409 5.94918 13.0104 5.52124 12.4376 5.52124C9.14492 5.52013 5.85263 5.51977 2.55999 5.52124C1.9894 5.5216 1.56182 5.95285 1.55704 6.52565C1.55374 6.83778 1.55594 7.15028 1.55594 7.46278ZM7.90705 4.41205C7.90705 4.09697 7.91109 3.7819 7.90153 3.46793C7.90043 3.42933 7.82727 3.36315 7.78425 3.36057C7.59712 3.34844 7.40815 3.34734 7.22138 3.36021C7.1758 3.36352 7.09896 3.4341 7.09749 3.47565C7.08682 3.78594 7.09161 4.0966 7.09161 4.41241C7.36808 4.41205 7.62837 4.41205 7.90705 4.41205ZM3.25999 4.40653C3.54087 4.40653 3.803 4.40653 4.07359 4.40653C4.07359 4.09403 4.07506 3.79219 4.07249 3.48999C4.07175 3.40285 4.01844 3.35469 3.93205 3.35359C3.75374 3.35138 3.57506 3.35065 3.39675 3.35433C3.31183 3.35616 3.25999 3.40322 3.25999 3.49293C3.25925 3.79513 3.25999 4.09697 3.25999 4.40653ZM11.7409 4.41205C11.7409 4.09844 11.7412 3.7966 11.7405 3.49513C11.7405 3.4058 11.6905 3.35653 11.6052 3.35506C11.4225 3.35138 11.2387 3.34624 11.0567 3.35984C11.0115 3.36315 10.9357 3.43374 10.9346 3.47528C10.9243 3.78557 10.9291 4.09624 10.9291 4.41205C11.2015 4.41205 11.4611 4.41205 11.7409 4.41205Z" fill="#303030" fill-opacity="0.52"/>
<path d="M7.48641 12.2772C6.49597 12.2772 5.50516 12.278 4.51472 12.2765C4.26325 12.2761 4.05553 12.121 3.98605 11.8916C3.9173 11.6651 3.9923 11.4033 4.19634 11.2861C4.31289 11.2192 4.46252 11.1798 4.59781 11.1791C5.90921 11.1714 7.22097 11.1743 8.53274 11.1743C9.17465 11.1743 9.81693 11.1714 10.4588 11.1758C10.8405 11.1783 11.0941 11.4798 11.0261 11.8379C10.9765 12.0993 10.7566 12.2761 10.4721 12.2769C9.50884 12.2783 8.54597 12.2776 7.58274 12.2776C7.55039 12.2772 7.5184 12.2772 7.48641 12.2772Z" fill="#303030" fill-opacity="0.52"/>
</svg>
