<svg width="20" height="20" viewBox="0 0 20 20" fill="none" xmlns="http://www.w3.org/2000/svg">
<g clip-path="url(#clip0_2393_467)">
<path d="M0.0198059 9.84369C0.175014 9.50567 0.44116 9.3989 0.804702 9.40828C1.53179 9.42755 2.25939 9.41296 2.98647 9.414C3.37241 9.41452 3.64689 9.66609 3.6396 10.0093C3.63231 10.3473 3.36512 10.5848 2.98647 10.5854C2.25939 10.5864 1.53126 10.5723 0.804702 10.5911C0.44116 10.6005 0.175535 10.4932 0.0198059 10.1557C0.0198059 10.052 0.0198059 9.94786 0.0198059 9.84369Z" fill="#303030" fill-opacity="0.52"/>
<path d="M9.8443 19.9998C9.50732 19.8441 9.40003 19.5774 9.4094 19.2133C9.42815 18.4852 9.41409 17.756 9.41513 17.0269C9.41565 16.6399 9.66722 16.3654 10.0094 16.3722C10.3464 16.3795 10.5839 16.6472 10.5844 17.0264C10.5854 17.755 10.5719 18.4842 10.5901 19.2128C10.5995 19.5769 10.4922 19.843 10.1552 19.9993C10.0526 19.9998 9.94847 19.9998 9.8443 19.9998Z" fill="#303030" fill-opacity="0.52"/>
<path d="M10.1563 0C10.4948 0.155208 10.6 0.422917 10.5907 0.786459C10.5724 1.51458 10.586 2.24375 10.5849 2.97292C10.5844 3.35989 10.3328 3.63437 9.99065 3.6276C9.65367 3.62083 9.41618 3.35208 9.41565 2.97292C9.41461 2.24427 9.42867 1.5151 9.4094 0.786459C9.40003 0.421875 9.50732 0.155729 9.8443 0C9.94847 0 10.0526 0 10.1563 0Z" fill="#303030" fill-opacity="0.52"/>
<path d="M10.0073 15.1986C7.13594 15.2022 4.81302 12.8788 4.81198 10.0022C4.81094 7.12464 7.13125 4.80068 10.0031 4.80225C12.8682 4.80381 15.1818 7.11787 15.1885 9.98819C15.1948 12.8658 12.8786 15.195 10.0073 15.1986Z" fill="#303030" fill-opacity="0.52"/>
<path d="M16.549 2.7583C16.8906 2.76924 17.0797 2.87861 17.1761 3.11299C17.2781 3.36038 17.2266 3.58643 17.0396 3.77601C16.6839 4.13695 16.3245 4.49424 15.9662 4.85309C15.7641 5.0557 15.5641 5.25986 15.3594 5.45934C15.0912 5.72184 14.7287 5.73226 14.4922 5.48903C14.2599 5.24997 14.2709 4.89372 14.5271 4.63486C15.0802 4.07601 15.6323 3.51611 16.1964 2.96872C16.3104 2.85882 16.4745 2.80153 16.549 2.7583Z" fill="#303030" fill-opacity="0.52"/>
<path d="M17.2276 16.5648C17.2172 16.8997 17.1089 17.0804 16.8891 17.1856C16.6693 17.2914 16.412 17.2481 16.224 17.0632C15.8209 16.6669 15.424 16.2643 15.0245 15.8643C14.8547 15.694 14.6823 15.5263 14.5156 15.3533C14.2719 15.0997 14.2636 14.7481 14.4901 14.5127C14.7214 14.2726 15.087 14.2721 15.3427 14.5252C15.911 15.0872 16.4782 15.6507 17.0334 16.2252C17.1391 16.3336 17.1896 16.4961 17.2276 16.5648Z" fill="#303030" fill-opacity="0.52"/>
<path d="M2.737 3.36159C2.77762 3.1017 2.91356 2.89024 3.13179 2.80691C3.38075 2.71211 3.60419 2.76263 3.79325 2.95065C4.24846 3.40482 4.70263 3.86107 5.15679 4.31628C5.27138 4.43138 5.3896 4.54284 5.50002 4.66263C5.72971 4.91211 5.73127 5.26003 5.50835 5.48972C5.28075 5.72409 4.91721 5.73086 4.66981 5.48659C4.09169 4.91628 3.51669 4.34232 2.9521 3.75847C2.85106 3.6543 2.80731 3.49545 2.737 3.36159Z" fill="#303030" fill-opacity="0.52"/>
<path d="M3.43803 17.2432C3.10522 17.226 2.92709 17.1156 2.82553 16.8927C2.72344 16.6698 2.7698 16.4192 2.95678 16.2286C3.33022 15.8484 3.70834 15.4734 4.0849 15.0963C4.27292 14.9078 4.45938 14.7172 4.65001 14.5312C4.90938 14.2786 5.2672 14.2698 5.50261 14.5052C5.73803 14.7406 5.73282 15.1015 5.47761 15.3599C4.92084 15.9239 4.36355 16.4885 3.79428 17.0401C3.68178 17.1495 3.51355 17.2015 3.43803 17.2432Z" fill="#303030" fill-opacity="0.52"/>
<path d="M18.1672 9.41387C18.563 9.41387 18.9589 9.41179 19.3547 9.4144C19.7177 9.41648 19.9776 9.66023 19.9802 9.99512C19.9828 10.33 19.7224 10.5837 19.3636 10.5847C18.5719 10.5873 17.7802 10.5868 16.9886 10.5847C16.6302 10.5837 16.3641 10.3342 16.361 10.0035C16.3578 9.667 16.6287 9.41544 16.999 9.41387C17.3886 9.41283 17.7781 9.41387 18.1672 9.41387Z" fill="#303030" fill-opacity="0.52"/>
</g>
<defs>
<clipPath id="clip0_2393_467">
<rect width="20" height="20" fill="white"/>
</clipPath>
</defs>
</svg>
