<svg width="18" height="18" viewBox="0 0 18 18" fill="none" xmlns="http://www.w3.org/2000/svg">
<g clip-path="url(#clip0_2393_459)">
<path d="M8.76537 17.525C8.44146 17.4493 8.12441 17.3576 7.85096 17.1559C7.31104 16.7579 7.03812 16.2188 7.00321 15.5289C6.94283 15.5289 6.88487 15.5289 6.82691 15.5289C5.85662 15.5286 4.88616 15.5397 3.91608 15.5249C2.69991 15.5064 1.85266 14.4564 1.96504 13.3611C2.03104 12.7181 2.22687 12.1029 2.51016 11.5226C2.75533 11.0206 3.02254 10.5286 3.2965 10.0414C3.64129 9.42814 3.82141 8.78014 3.80771 8.07302C3.796 7.46968 3.76987 6.86235 3.90629 6.26752C4.34879 4.33831 5.507 3.03556 7.36358 2.35893C7.62687 2.26298 7.90879 2.2146 8.18512 2.1596C8.29283 2.13818 8.33471 2.10518 8.3315 1.99156C8.32387 1.7201 8.32579 1.44823 8.33016 1.1766C8.3365 0.785934 8.60891 0.501017 8.97729 0.49285C9.34841 0.4846 9.64475 0.769975 9.657 1.16414C9.66683 1.47935 9.659 1.7951 9.659 2.12735C9.79704 2.15073 9.928 2.16606 10.0556 2.19556C11.6881 2.57298 12.8883 3.50835 13.6496 5.00002C14.0325 5.75023 14.1766 6.55652 14.1861 7.39343C14.1916 7.87493 14.1652 8.36493 14.2465 8.83493C14.3138 9.22414 14.5088 9.5936 14.6652 9.96418C14.7459 10.1554 14.8005 10.3408 14.7343 10.5417C14.6482 10.803 14.4603 10.958 14.1907 10.9937C13.9123 11.0306 13.6827 10.9223 13.5417 10.6806C13.2127 10.1166 12.9532 9.5201 12.8975 8.86343C12.8553 8.3676 12.862 7.86735 12.8542 7.36897C12.831 5.89114 12.209 4.74639 10.9524 3.96064C9.70429 3.18023 7.94804 3.25593 6.76466 4.13643C5.68725 4.93814 5.14312 6.01064 5.13304 7.35731C5.12916 7.87764 5.12025 8.39948 5.07675 8.91752C5.02641 9.51673 4.78883 10.0618 4.51029 10.5894C4.21062 11.157 3.89275 11.7168 3.62879 12.3008C3.47333 12.6447 3.385 13.0244 3.30671 13.3964C3.21358 13.8389 3.51075 14.1798 3.96454 14.1977C3.99221 14.1988 4.02 14.1982 4.04771 14.1982C7.34671 14.1982 10.6457 14.198 13.9447 14.1988C14.1317 14.1988 14.3102 14.1752 14.4602 14.0513C14.6389 13.9036 14.722 13.7146 14.708 13.4815C14.7016 13.3771 14.6886 13.2691 14.7068 13.1679C14.7661 12.8387 15.0353 12.6234 15.3655 12.6259C15.6861 12.6282 15.9569 12.8617 16.0141 13.1851C16.2255 14.3798 15.3245 15.4989 14.1078 15.5233C13.1435 15.5427 12.1784 15.5284 11.2137 15.529C11.1482 15.529 11.0827 15.529 11.047 15.529C10.9695 15.8138 10.9299 16.0922 10.8196 16.3391C10.5339 16.9792 10.0307 17.3646 9.33754 17.4946C9.31212 17.4994 9.28871 17.5147 9.26437 17.5251C9.09804 17.525 8.93171 17.525 8.76537 17.525ZM8.35208 15.5371C8.35591 15.9064 8.64104 16.1919 9.00212 16.1931C9.36641 16.1944 9.65708 15.9071 9.65771 15.5371C9.22254 15.5371 8.78737 15.5371 8.35208 15.5371Z" fill="#303030" fill-opacity="0.52"/>
</g>
<defs>
<clipPath id="clip0_2393_459">
<rect width="17" height="17" fill="white" transform="translate(0.5 0.5)"/>
</clipPath>
</defs>
</svg>
