<svg width="18" height="18" viewBox="0 0 18 18" fill="none" xmlns="http://www.w3.org/2000/svg">
<g clip-path="url(#clip0_2393_463)">
<path d="M17.4746 3.41325C17.4746 3.50153 17.4746 3.5898 17.4746 3.67812C17.3804 3.83141 17.2982 3.99378 17.19 4.1365C16.6771 4.81351 16.157 5.4851 15.6399 6.15896C15.6073 6.20142 15.5784 6.24674 15.5459 6.29355C15.9548 6.84012 16.3616 7.3757 16.759 7.91821C17.005 8.25402 17.2366 8.60032 17.4746 8.94194C17.4746 9.03022 17.4746 9.11849 17.4746 9.20681C17.3929 9.47143 17.2318 9.65287 16.9595 9.73966C15.1544 10.3148 13.351 10.8952 11.5462 11.471C11.1829 11.5869 10.9328 11.5019 10.7075 11.1942C10.4013 10.776 10.0996 10.3544 9.79554 9.93458C9.76146 9.88756 9.72456 9.84253 9.6707 9.77295C9.6707 11.6543 9.6707 13.5045 9.6707 15.3613C9.70702 15.3556 9.73978 15.3538 9.77058 15.3451C10.931 15.0164 12.0942 14.6972 13.2502 14.3538C13.8304 14.1814 14.1593 13.7197 14.1963 13.1115C14.2213 12.7025 14.5092 12.4131 14.8763 12.4279C15.2619 12.4434 15.5275 12.7465 15.5197 13.1622C15.498 14.3209 14.7005 15.3211 13.5283 15.6581C12.5014 15.9533 11.4735 16.2446 10.4476 16.5429C9.54697 16.8048 8.64402 16.8308 7.73941 16.5766C6.64192 16.2682 5.54434 15.9595 4.45132 15.6357C3.24984 15.2798 2.51291 14.2763 2.511 13.0213C2.50963 12.1385 2.50756 11.2557 2.5142 10.373C2.51519 10.2432 2.47298 10.1959 2.35311 10.1597C1.91036 10.0258 1.47044 9.88225 1.0318 9.73534C0.527973 9.56663 0.376134 9.08371 0.68881 8.65323C0.815191 8.47925 0.94833 8.31016 1.07848 8.13892C1.5488 7.52012 2.0192 6.90132 2.49566 6.27452C2.45569 6.22248 2.42011 6.17443 2.38276 6.12786C2.05151 5.71472 1.71992 5.30183 1.38846 4.88889C1.15714 4.60068 0.92113 4.31608 0.69561 4.02334C0.368505 3.59884 0.528844 3.09859 1.03942 2.93344C1.11796 2.90802 1.1979 2.88687 1.27734 2.86428C3.04663 2.36091 4.81703 1.86157 6.58429 1.35115C6.9563 1.24372 7.2392 1.33054 7.47309 1.63298C7.65524 1.86849 7.85016 2.09418 8.03953 2.32409C8.35797 2.71065 8.67653 3.09713 9.00459 3.49522C9.05293 3.43805 9.09199 3.39401 9.12865 3.34811C9.58636 2.77476 10.047 2.20376 10.4998 1.62655C10.732 1.33042 11.0103 1.24583 11.3749 1.34817C13.1885 1.85705 15.0038 2.35954 16.821 2.85532C17.1363 2.94127 17.3707 3.09344 17.4746 3.41325ZM3.83489 10.6408C3.83489 10.7199 3.83489 10.7788 3.83489 10.8378C3.83489 11.5438 3.83476 12.2498 3.83493 12.9557C3.8351 13.7178 4.18878 14.1893 4.91787 14.3973C5.95027 14.6918 6.98279 14.9858 8.0156 15.2789C8.11756 15.3078 8.22184 15.3286 8.32334 15.3526C8.32334 13.4812 8.32334 11.6289 8.32334 9.74994C8.27251 9.81765 8.23913 9.86131 8.20662 9.90559C7.88989 10.3365 7.57514 10.7688 7.25608 11.198C7.02803 11.5047 6.78107 11.5845 6.41594 11.4702C6.00616 11.3418 5.5982 11.2077 5.18941 11.0762C4.74476 10.9331 4.30002 10.7903 3.83489 10.6408ZM15.7246 8.7442C15.3432 8.23433 14.9736 7.74726 14.6134 7.2533C14.5374 7.14911 14.4735 7.11925 14.3447 7.1569C13.3729 7.44093 12.3985 7.71599 11.4251 7.99425C11.0463 8.10252 10.6678 8.21181 10.275 8.32472C10.3156 8.38592 10.344 8.43194 10.3756 8.47569C10.7305 8.96699 11.0891 9.45567 11.4384 9.95087C11.5108 10.0535 11.571 10.0791 11.6938 10.0388C12.504 9.77254 13.3171 9.51521 14.1292 9.25507C14.6525 9.0874 15.1758 8.91993 15.7246 8.7442ZM7.71715 8.33355C7.6892 8.31904 7.68004 8.3122 7.66971 8.30925C6.31643 7.91983 4.96344 7.52953 3.60837 7.14649C3.56297 7.13364 3.47768 7.17879 3.44351 7.22241C3.1582 7.58667 2.88052 7.9569 2.60048 8.32526C2.4984 8.45952 2.39623 8.59373 2.2803 8.74615C2.51059 8.82079 2.71815 8.88841 2.92597 8.95533C4.04639 9.31627 5.16686 9.67696 6.28724 10.038C6.35951 10.0613 6.42361 10.0994 6.48896 10.0093C6.89282 9.45248 7.30164 8.89928 7.71715 8.33355ZM10.1451 4.19898C10.1848 4.21681 10.2081 4.23079 10.2334 4.23808C11.6189 4.63754 13.005 5.03518 14.3896 5.43808C14.4841 5.46557 14.5267 5.43675 14.579 5.36796C14.9226 4.91605 15.2701 4.46713 15.6155 4.01654C15.6367 3.98885 15.6503 3.95522 15.6695 3.9206C15.6214 3.9048 15.5853 3.89128 15.5483 3.88104C14.3072 3.53698 13.0661 3.19279 11.8247 2.84997C11.6613 2.80486 11.4734 2.69983 11.3375 2.7449C11.2004 2.79039 11.1119 2.9868 11.0054 3.11969C10.7201 3.47557 10.4367 3.8329 10.1451 4.19898ZM2.32836 3.94237C2.73101 4.44461 3.1111 4.92335 3.49999 5.39483C3.5298 5.43094 3.62774 5.43766 3.68355 5.42162C5.03729 5.03252 6.38966 4.63858 7.74207 4.24484C7.7805 4.23365 7.81691 4.21553 7.86604 4.19596C7.4726 3.71805 7.08877 3.25648 6.71179 2.78939C6.64636 2.70833 6.58706 2.7277 6.51061 2.74955C5.60073 3.00994 4.69036 3.26855 3.7802 3.52786C3.3049 3.66332 2.82977 3.79919 2.32836 3.94237ZM5.47402 6.28293C5.54102 6.30943 5.56872 6.32315 5.59795 6.33153C6.67132 6.6401 7.74381 6.95199 8.81979 7.25127C8.94447 7.28593 9.09631 7.2781 9.22256 7.24306C10.2722 6.95174 11.3189 6.64955 12.3662 6.34998C12.4137 6.33642 12.4593 6.31627 12.5373 6.28758C12.4719 6.26519 12.4464 6.2552 12.4202 6.24765C11.31 5.92768 10.2 5.60683 9.08872 5.29076C9.02544 5.27276 8.94724 5.28006 8.88252 5.29847C8.19987 5.49264 7.51862 5.69163 6.83688 5.88903C6.39583 6.01678 5.95466 6.14407 5.47402 6.28293Z" fill="#303030" fill-opacity="0.52"/>
</g>
<defs>
<clipPath id="clip0_2393_463">
<rect width="17" height="17" fill="white" transform="translate(0.5 0.5)"/>
</clipPath>
</defs>
</svg>
