<svg width="52" height="42" viewBox="0 0 52 42" fill="none" xmlns="http://www.w3.org/2000/svg">
<g clip-path="url(#clip0_2393_2475)">
<path d="M34.2084 12.332C39.2212 15.2198 41.7275 19.5787 41.7275 25.4087C41.7275 30.258 40.0112 34.2355 36.5786 37.3413C33.1459 40.447 28.9232 41.9999 23.9104 41.9999H-0.363281V-15.2109H22.1941C27.0979 -15.2109 31.2116 -13.6853 34.5353 -10.6341C37.9135 -7.63732 39.6026 -3.79602 39.6026 0.88982C39.6026 5.63014 37.8045 9.4442 34.2084 12.332ZM22.1941 -4.6678H10.9154V7.91858H22.1941C23.9377 7.91858 25.3816 7.31923 26.5258 6.12052C27.7245 4.92182 28.3239 3.42344 28.3239 1.62539C28.3239 -0.172668 27.7517 -1.67105 26.6075 -2.86975C25.4633 -4.06845 23.9922 -4.6678 22.1941 -4.6678ZM23.9104 31.4567C25.8175 31.4567 27.3976 30.8301 28.6508 29.577C29.904 28.2693 30.5306 26.6347 30.5306 24.6732C30.5306 22.7661 29.904 21.186 28.6508 19.9328C27.3976 18.6252 25.8175 17.9713 23.9104 17.9713H10.9154V31.4567H23.9104Z" fill="#303030"/>
<path d="M11.3512 25.7788H-5.67578V31.4545H11.3512V25.7788Z" fill="white"/>
</g>
<circle cx="47" cy="37" r="5" fill="#446EE7"/>
<defs>
<clipPath id="clip0_2393_2475">
<rect width="42" height="42" fill="white"/>
</clipPath>
</defs>
</svg>
